# xmcd
#
# Track frame offsets: 
#        150
#        23008
#        41243
#        63345
#        82840
#        101395
#        121360
#        140518
#        162883
#        180530
#        197958
#
# Disc length: 2873 seconds
#
# Revision: 2
# Processed by: cddbd v1.5.1PL0 Copyright (c) Steve Scherf et al.
# Submitted via: ExactAudioCopy v0.95a5
#
DISCID=8c0b370b
DTITLE=张学友 - 走过1999
DYEAR=1999
DGENRE=
TTITLE0=心如刀割
TTITLE1=坏x5（坏坏坏坏坏）^
TTITLE2=她来听我的演唱会
TTITLE3=二分之一的幸福
TTITLE4=留给自己一个晚上
TTITLE5=认床
TTITLE6=好呆
TTITLE7=走过1999
TTITLE8=你好毒
TTITLE9=放弃你
TTITLE10=女人香
EXTD=
EXTT0=
EXTT1=
EXTT2=
EXTT3=
EXTT4=
EXTT5=
EXTT6=
EXTT7=
EXTT8=
EXTT9=
EXTT10=
PLAYORDER=
